<?xml version="1.0" standalone="no"?>
<!DOCTYPE svg PUBLIC "-//W3C//DTD SVG 20010904//EN"
 "http://www.w3.org/TR/2001/REC-SVG-20010904/DTD/svg10.dtd">
<svg version="1.0" xmlns="http://www.w3.org/2000/svg"
 width="1000.000000pt" height="1000.000000pt" viewBox="0 0 1000.000000 1000.000000"
 preserveAspectRatio="xMidYMid meet">
<metadata>
Created by potrace 1.11, written by Peter Selinger 2001-2013
</metadata>
<g transform="translate(0.000000,1000.000000) scale(0.100000,-0.100000)"
fill="#000000" stroke="none">
<path d="M5017 8884 c-3 -3 -34 -7 -69 -9 -79 -5 -92 -8 -110 -23 -8 -6 -18
-9 -21 -5 -4 3 -7 1 -7 -5 0 -6 -15 -15 -34 -22 -34 -11 -96 -70 -96 -91 0 -7
-3 -10 -6 -6 -9 8 -44 -60 -51 -98 -15 -87 -7 -165 17 -150 21 13 193 28 333
29 64 0 117 4 117 7 0 10 -28 19 -56 19 -14 0 -23 4 -19 9 3 5 18 7 33 5 15
-3 38 -7 52 -9 14 -2 27 -4 30 -5 3 -2 8 -2 13 -1 4 0 7 -4 7 -11 0 -6 3 -9 6
-6 7 7 70 -18 99 -39 20 -15 20 -15 -1 -9 -45 13 -114 18 -249 19 -128 0 -175
-3 -245 -18 -14 -3 -41 -8 -60 -12 -19 -4 -38 -8 -42 -9 -5 -1 -12 -2 -17 -3
-26 -3 -38 -31 -34 -82 3 -43 -1 -55 -19 -74 -20 -20 -23 -32 -22 -91 1 -60 8
-124 16 -166 4 -19 26 -40 46 -42 15 -3 17 -22 18 -219 0 -119 -3 -222 -7
-229 -6 -9 -9 -5 -10 12 -3 38 -9 102 -13 130 -1 14 -4 37 -4 52 -2 25 -4 26
-34 17 -18 -6 -40 -12 -48 -14 -8 -2 -16 -4 -17 -5 -2 -2 -6 -3 -10 -4 -22 -6
-63 -30 -63 -38 0 -4 -3 -7 -7 -6 -9 3 -86 -52 -91 -65 -2 -4 -8 -5 -13 -1 -5
3 -9 0 -9 -5 0 -6 -8 -11 -17 -11 -9 0 -13 -3 -10 -7 4 -3 2 -12 -3 -18 -7 -9
-3 -17 14 -29 14 -9 30 -16 35 -16 5 0 11 -4 13 -10 2 -5 12 -11 23 -13 11 -2
31 -9 45 -15 22 -10 20 -11 -15 -6 -22 4 -66 15 -99 26 -56 18 -166 22 -166 6
0 -4 -7 -5 -14 -2 -8 3 -41 -2 -73 -11 -32 -10 -64 -18 -70 -18 -7 0 -13 -3
-13 -6 0 -3 -13 -12 -28 -19 -16 -6 -38 -21 -50 -32 -12 -12 -22 -19 -22 -16
0 2 -24 -19 -53 -47 -29 -29 -51 -55 -50 -59 2 -4 -6 -22 -17 -40 -11 -18 -20
-43 -20 -55 0 -12 -4 -24 -8 -27 -9 -5 -8 -226 1 -264 3 -12 2 -20 -2 -18 -4
3 -14 30 -21 61 -7 30 -17 55 -22 55 -38 0 -115 -81 -160 -166 -35 -66 -36
-71 -20 -86 52 -48 66 -79 68 -155 2 -72 2 -74 -15 -56 -10 10 -17 21 -15 25
7 12 -8 89 -20 101 -6 7 -12 19 -14 26 -4 17 -92 100 -114 107 -10 3 -18 10
-18 15 0 5 -3 9 -7 8 -17 -2 -53 14 -53 24 0 6 -3 8 -6 5 -3 -4 -30 5 -60 18
-31 13 -60 22 -65 19 -5 -4 -9 -1 -9 5 0 6 -4 9 -10 5 -10 -6 -95 31 -123 55
-43 35 -67 60 -67 67 0 5 -9 15 -19 23 -11 7 -18 17 -15 22 3 4 -1 8 -9 8 -13
0 -42 47 -39 63 1 4 -3 7 -10 7 -6 0 -9 3 -6 6 3 3 3 17 -1 32 -7 24 2 65 26
122 3 8 8 35 10 60 3 25 6 46 8 48 1 1 20 5 41 7 22 2 39 5 39 5 0 1 11 3 25
5 14 1 50 6 80 9 105 13 135 17 205 21 75 6 146 12 210 19 106 11 204 19 247
20 27 1 48 4 48 7 0 3 15 5 33 5 31 0 183 11 262 19 133 14 140 15 163 40 12
14 27 25 33 25 6 0 8 3 6 8 -3 4 10 18 29 32 61 46 54 49 -84 45 -134 -5 -205
-9 -312 -20 -36 -4 -85 -8 -110 -10 -25 -2 -45 -4 -45 -5 0 0 -22 -3 -50 -5
-27 -3 -75 -7 -105 -11 -30 -3 -75 -8 -100 -10 -25 -2 -55 -5 -68 -8 -12 -3
-62 -8 -110 -11 -85 -6 -116 -9 -197 -19 -22 -3 -58 -8 -80 -10 -22 -3 -62 -8
-90 -11 -27 -4 -61 -8 -75 -10 -14 -2 -25 -4 -25 -5 0 -1 -14 -3 -32 -3 -17
-1 -34 -4 -37 -7 -3 -3 -7 -55 -9 -115 -5 -127 -9 -141 -45 -151 -48 -13 -56
-13 -71 -1 -12 10 -13 9 -6 -2 5 -9 4 -12 -3 -7 -12 7 -62 -13 -62 -26 0 -4
-4 -8 -10 -8 -5 0 -10 6 -10 13 1 16 97 60 116 53 21 -8 60 3 62 17 7 63 7
247 -1 264 -22 51 -98 61 -140 19 -11 -11 -22 -13 -38 -8 -34 13 -86 -6 -93
-34 -4 -16 -14 -24 -29 -25 -67 -2 -97 -19 -100 -57 -1 -12 -4 -22 -7 -22 -3
0 -21 -14 -40 -31 -34 -30 -34 -32 -33 -107 1 -84 6 -117 24 -138 6 -8 8 -14
5 -14 -4 0 6 -17 21 -37 34 -46 53 -67 53 -58 0 4 7 0 15 -9 8 -8 15 -20 15
-26 0 -6 5 -8 10 -5 6 3 10 2 10 -2 0 -7 43 -30 70 -37 13 -4 44 -25 36 -26
-5 0 -3 -7 4 -15 6 -8 9 -19 6 -24 -4 -5 -2 -12 4 -16 6 -4 8 -11 5 -16 -4 -5
-1 -9 4 -9 6 0 11 -6 11 -14 0 -8 4 -25 9 -38 5 -13 9 -27 9 -32 0 -5 4 -12 9
-15 5 -3 30 -40 56 -82 26 -42 54 -82 62 -89 8 -7 12 -17 8 -24 -3 -6 -3 -8 1
-4 4 3 24 -12 44 -35 20 -23 40 -44 45 -45 4 -2 5 -8 1 -13 -3 -5 -1 -8 4 -7
5 2 28 -16 52 -39 23 -24 45 -43 49 -43 3 0 25 -17 48 -38 53 -47 81 -69 116
-90 15 -9 27 -20 27 -25 0 -4 5 -5 10 -2 6 3 10 1 10 -4 0 -6 15 -17 34 -25
19 -8 39 -22 45 -33 6 -10 11 -15 11 -10 0 4 18 -4 40 -18 22 -14 40 -23 40
-20 0 3 15 -5 33 -19 19 -14 37 -23 40 -19 4 3 7 2 7 -4 0 -6 11 -14 25 -17
14 -4 25 -11 25 -17 0 -6 4 -8 9 -4 5 3 17 -3 27 -12 10 -10 20 -18 23 -17 13
2 41 -9 41 -16 0 -8 33 -21 65 -25 11 -2 34 3 52 10 17 7 34 11 37 7 3 -3 6
-1 6 5 0 11 78 48 93 45 4 -1 7 2 7 6 0 5 18 14 41 21 40 12 114 79 125 114 3
9 9 17 14 17 11 0 29 -32 36 -63 3 -12 6 -26 8 -32 5 -21 57 -95 67 -95 5 0 7
-4 4 -10 -3 -5 -2 -10 4 -10 14 0 61 -45 61 -59 0 -7 5 -9 10 -6 9 5 12 -1 9
-21 0 -4 4 -10 9 -13 9 -6 63 -172 78 -241 22 -103 29 -116 80 -167 59 -58
190 -153 199 -145 5 4 5 2 2 -4 -4 -7 3 -14 18 -18 14 -4 59 -26 100 -51 42
-24 78 -45 80 -45 12 -2 75 -31 75 -34 0 -2 -23 3 -50 12 -33 10 -53 13 -60 6
-9 -9 -16 -45 -25 -119 -1 -11 -3 -20 -5 -20 -7 0 -3 -110 5 -120 13 -16 154
-61 238 -75 37 -7 67 -14 67 -17 0 -2 -30 -2 -67 1 -89 8 -106 10 -121 20 -6
4 -16 5 -21 1 -5 -3 -12 -1 -16 5 -3 5 -15 10 -26 10 -10 0 -19 5 -19 11 0 5
-4 8 -9 5 -4 -3 -19 3 -32 15 -20 17 -23 29 -23 92 1 40 4 88 8 107 4 19 8 44
10 55 2 11 4 20 5 20 2 0 4 8 6 18 2 13 -9 24 -41 38 -24 12 -44 24 -44 28 0
3 -13 12 -28 19 -16 6 -38 21 -49 31 -12 11 -23 17 -27 14 -3 -3 -8 2 -12 11
-3 9 -12 16 -20 16 -8 0 -14 3 -14 8 0 4 -21 21 -45 37 -25 17 -45 34 -45 38
0 5 -5 5 -12 1 -6 -4 -8 -3 -5 3 6 9 -32 33 -53 33 -14 0 -5 -152 10 -180 8
-14 13 -28 12 -32 -1 -5 3 -8 9 -8 5 0 7 -4 4 -10 -3 -5 -2 -10 2 -10 9 0 35
-61 29 -67 -5 -6 -51 70 -48 80 1 4 -3 7 -9 7 -5 0 -8 4 -5 8 2 4 -4 13 -15
20 -11 7 -19 8 -19 2 0 -5 -5 -10 -11 -10 -11 0 -123 -112 -173 -173 -17 -20
-35 -33 -40 -30 -6 4 -8 3 -4 -2 7 -7 -7 -28 -72 -109 -8 -10 -25 -29 -36 -41
-12 -12 -29 -35 -37 -51 -9 -16 -35 -49 -59 -74 -23 -24 -36 -41 -28 -36 8 4
7 1 -2 -7 -10 -8 -18 -17 -18 -21 0 -7 -12 -23 -41 -55 -8 -10 -18 -25 -22
-34 -3 -9 -11 -17 -16 -17 -22 0 -3 -35 20 -36 29 -1 99 -13 119 -21 8 -3 21
-7 29 -9 7 -1 35 -12 62 -23 26 -12 55 -21 63 -21 9 0 16 -3 16 -7 0 -5 19
-17 43 -28 23 -11 51 -28 61 -37 11 -10 25 -18 32 -18 6 0 14 -7 18 -15 3 -8
12 -15 21 -15 8 0 15 -4 15 -10 0 -5 6 -10 13 -10 7 0 37 -22 65 -49 29 -27
52 -48 52 -45 0 2 10 -5 23 -16 12 -10 31 -26 42 -35 13 -10 15 -14 5 -13 -8
2 -23 12 -32 22 -10 10 -18 16 -18 12 0 -4 -7 -1 -15 6 -34 30 -45 38 -56 38
-6 0 -8 7 -5 16 3 8 2 12 -4 9 -10 -6 -102 51 -108 67 -2 4 -12 8 -23 8 -10 0
-19 3 -19 8 0 4 -15 14 -32 21 -18 8 -39 21 -46 28 -7 7 -20 13 -28 13 -8 0
-14 5 -14 11 0 5 -4 8 -9 4 -5 -3 -17 3 -27 12 -10 10 -18 17 -18 15 -1 -2
-14 2 -31 9 -16 7 -33 12 -36 11 -4 -1 -22 3 -40 9 -52 16 -81 21 -114 21 -75
1 -70 5 -115 -92 -6 -14 -13 -35 -15 -45 -2 -11 -4 -20 -5 -20 -2 0 -6 -16
-14 -55 -3 -14 -9 -38 -13 -55 -3 -16 -8 -39 -9 -50 -32 -253 -34 -525 -3
-525 6 0 8 -4 4 -9 -3 -5 3 -17 12 -27 10 -10 17 -20 17 -23 -1 -3 7 -23 18
-44 11 -22 18 -41 16 -43 -2 -2 -24 35 -49 81 -24 47 -48 83 -54 82 -12 -4
-45 -69 -39 -79 2 -4 0 -9 -6 -13 -6 -4 -8 -11 -5 -16 4 -5 2 -9 -3 -9 -5 0
-9 -6 -9 -12 0 -7 -4 -29 -8 -48 -15 -76 -17 -102 -20 -300 -3 -205 -7 -258
-22 -269 -4 -3 -9 -10 -10 -16 -3 -17 -35 -109 -44 -128 -6 -11 -5 -17 2 -17
5 0 8 -4 5 -9 -24 -38 -37 -411 -22 -641 4 -63 8 -143 9 -177 1 -35 4 -63 7
-63 3 0 5 -19 5 -43 0 -23 5 -69 11 -102 6 -34 10 -85 8 -114 -3 -65 -34 -201
-46 -201 -5 0 -6 -4 -3 -10 3 -5 1 -10 -4 -10 -6 0 -11 -9 -11 -20 0 -11 -4
-20 -8 -20 -5 0 -14 -11 -20 -24 -5 -13 -31 -46 -57 -74 -50 -55 -55 -66 -28
-69 10 -1 29 -4 43 -8 14 -3 39 -7 55 -9 17 -1 38 -7 47 -12 11 -6 -29 -9
-110 -8 -195 2 -205 -1 -195 -72 8 -53 11 -53 473 -40 91 3 172 6 181 8 30 7
53 40 55 78 1 21 4 42 7 48 4 5 3 12 0 16 -4 4 -8 16 -10 28 -2 12 -8 25 -14
28 -5 4 -11 17 -12 28 -1 12 -4 22 -7 22 -7 0 -30 100 -36 160 -13 132 6 280
57 433 16 48 29 94 29 102 0 8 4 15 10 15 5 0 7 7 4 15 -4 8 -1 15 5 15 6 0
10 3 9 8 -4 15 36 88 61 112 51 48 99 154 128 280 1 8 5 46 7 84 3 37 7 71 10
73 3 3 1 14 -5 24 -7 13 -6 19 1 19 6 0 8 4 5 10 -3 5 -8 38 -10 72 -7 97 -16
177 -29 263 -1 13 -18 25 -27 19 -10 -6 -79 -149 -79 -163 0 -6 -4 -11 -10
-11 -5 0 -10 -5 -10 -11 0 -14 -50 -130 -62 -144 -15 -16 50 154 93 243 21 46
39 87 39 93 0 5 5 9 12 9 6 0 9 3 5 6 -3 4 5 21 18 39 14 17 25 39 25 48 0 10
4 17 8 17 6 0 28 42 36 70 1 3 8 16 16 30 8 14 14 28 15 32 0 3 12 20 28 37
15 17 27 34 27 37 0 4 8 14 18 23 9 9 33 34 52 56 18 22 39 39 44 37 6 -2 8 0
4 4 -9 9 213 234 224 227 5 -2 7 0 6 5 -2 5 22 33 52 61 30 29 88 84 128 122
41 40 78 67 84 63 6 -4 8 -3 5 3 -3 5 24 36 61 69 37 32 95 88 130 124 80 83
106 87 160 23 57 -68 80 -93 87 -93 4 0 12 -6 19 -12 7 -7 28 -24 46 -38 18
-14 38 -30 44 -35 6 -6 31 -26 56 -45 24 -19 56 -45 70 -58 73 -65 106 -92
113 -92 4 0 7 -6 7 -14 0 -7 9 -16 21 -19 12 -3 18 -10 14 -16 -3 -6 1 -11 10
-11 9 0 13 -5 10 -10 -3 -6 -1 -10 5 -10 15 0 120 -105 120 -121 0 -7 3 -10 6
-7 4 5 54 -37 54 -46 0 -2 18 -23 40 -47 22 -24 43 -52 46 -62 3 -9 9 -15 13
-12 5 2 28 -23 52 -58 24 -34 51 -71 61 -81 10 -11 18 -23 18 -27 0 -4 6 -14
13 -21 7 -7 20 -33 30 -58 14 -39 67 -131 94 -165 15 -19 45 -89 67 -159 19
-58 20 -69 6 -61 -6 4 -8 11 -5 16 4 5 1 9 -6 9 -7 0 -9 3 -6 7 4 3 2 12 -4
20 -6 7 -8 13 -3 13 5 0 4 4 -1 8 -6 4 -28 44 -50 89 -22 46 -46 83 -54 83 -7
0 -11 -6 -8 -14 3 -8 3 -17 -1 -20 -7 -7 -7 -10 -17 -156 -4 -57 -9 -113 -11
-125 -6 -27 -6 -179 1 -208 4 -21 14 -78 20 -123 2 -12 10 -35 19 -52 9 -18
16 -34 17 -37 0 -12 37 -84 63 -125 16 -25 29 -50 29 -57 0 -7 4 -10 9 -7 4 3
8 -2 8 -10 0 -9 5 -16 11 -16 5 0 7 -4 4 -10 -3 -5 -1 -10 4 -10 6 0 10 -3 9
-7 -1 -5 5 -21 12 -38 7 -16 13 -33 12 -37 -1 -5 3 -8 9 -8 5 0 8 -4 4 -9 -3
-5 -1 -12 4 -15 5 -3 12 -23 17 -43 4 -21 8 -40 9 -43 34 -116 45 -261 31
-400 -8 -73 -20 -125 -43 -187 -8 -23 -13 -54 -11 -68 3 -14 2 -28 -3 -31 -5
-2 -4 -16 1 -29 5 -14 7 -25 4 -25 -9 0 19 -45 35 -55 9 -5 61 -11 116 -11 55
-1 181 -3 280 -4 196 -3 245 2 271 31 20 22 13 63 -13 74 -42 17 -170 23 -278
13 l-60 -6 43 13 c48 15 94 25 134 28 15 1 30 5 33 9 4 4 -16 30 -44 57 -31
30 -49 56 -45 63 4 7 3 8 -4 4 -11 -6 -16 6 -13 27 0 4 -4 7 -10 7 -5 0 -7 5
-4 10 3 6 2 10 -3 10 -5 0 -15 19 -22 43 -7 23 -16 53 -21 67 -21 59 -33 249
-18 287 5 15 5 23 -2 23 -6 0 -7 5 -4 10 11 19 16 60 32 275 8 110 8 404 -1
495 -4 41 -7 82 -8 90 0 8 -7 49 -15 90 -8 41 -16 80 -17 85 -1 6 -5 15 -8 21
-4 6 -9 22 -12 37 -2 15 -8 32 -12 38 -4 6 -8 113 -9 238 -2 124 -7 242 -12
261 -6 19 -10 38 -11 43 -7 48 -16 78 -23 82 -4 3 -6 12 -2 20 3 8 1 15 -4 15
-9 0 -11 6 -15 50 -1 10 -4 17 -7 15 -2 -3 -9 -1 -16 5 -8 6 -21 -10 -46 -56
-33 -63 -79 -121 -63 -81 3 9 11 17 17 17 6 0 8 3 4 6 -3 3 7 29 21 57 15 29
27 54 28 57 0 3 5 14 9 25 11 24 11 251 0 360 -5 44 -9 96 -11 115 -1 19 -3
35 -4 35 -1 0 -3 9 -5 20 -12 62 -23 103 -35 125 -7 14 -12 25 -11 25 2 0 -5
20 -15 45 -10 25 -17 49 -16 53 1 5 -2 6 -7 3 -5 -4 -14 0 -18 9 -12 21 -77
24 -148 8 -33 -8 -70 -14 -82 -15 -13 -1 -23 -6 -23 -11 0 -4 -4 -5 -10 -2 -5
3 -10 2 -10 -3 0 -11 -35 -24 -66 -25 -15 -1 -20 -6 -16 -16 3 -9 1 -12 -6 -7
-7 4 -15 1 -18 -8 -3 -9 -10 -14 -14 -11 -4 3 -19 -4 -32 -15 -14 -11 -28 -16
-32 -13 -3 3 -6 2 -6 -3 0 -5 -13 -18 -30 -27 -17 -10 -30 -13 -30 -8 0 6 3
11 8 11 4 0 20 11 35 25 15 14 27 23 27 20 0 -3 10 3 22 15 25 23 104 63 125
63 7 0 13 4 13 8 0 7 59 24 73 21 4 -1 7 3 7 8 0 5 3 9 8 8 4 -1 25 3 47 7 22
5 45 8 52 7 6 -2 14 2 17 7 3 5 15 7 25 4 27 -7 36 14 11 27 -11 6 -20 17 -20
24 0 8 -7 16 -15 20 -8 3 -15 12 -15 21 0 8 -5 15 -11 15 -5 0 -7 5 -4 10 3 6
1 10 -5 10 -6 0 -8 4 -5 10 3 5 1 10 -5 10 -6 0 -13 8 -17 18 -3 9 -25 42 -49
73 -24 31 -40 59 -37 63 3 3 -1 6 -11 6 -9 0 -14 5 -11 10 3 6 1 10 -5 10 -6
0 -8 5 -4 12 4 6 3 8 -3 5 -9 -6 -42 21 -36 29 6 8 -181 201 -237 244 -17 14
-41 33 -52 43 -19 15 -23 16 -38 2 -9 -8 -19 -15 -23 -15 -3 0 -20 -13 -38
-30 -18 -16 -36 -27 -41 -24 -4 3 -8 0 -8 -5 0 -6 -25 -25 -55 -42 -30 -17
-55 -34 -55 -39 0 -8 -57 -34 -63 -29 -2 2 -12 -4 -21 -14 -10 -10 -21 -15
-24 -12 -3 3 5 15 18 28 14 12 25 20 27 17 2 -6 106 71 111 83 2 4 10 7 18 7
8 0 14 5 14 10 0 6 7 10 16 10 8 0 12 5 9 10 -3 6 -2 10 4 10 6 0 33 23 61 52
l50 51 0 79 c0 78 0 78 -22 66 -13 -7 -33 -24 -46 -38 -22 -24 -29 -9 -7 16
55 63 85 113 85 143 0 12 4 21 9 21 6 0 8 9 6 20 -2 11 0 20 6 20 5 0 9 6 9
13 1 6 9 30 20 52 10 22 16 43 14 47 -3 5 0 8 6 8 6 0 8 5 5 10 -3 6 -1 10 5
10 6 0 8 5 5 10 -3 6 -1 10 6 10 7 0 10 3 6 6 -3 4 7 26 23 50 17 23 30 46 30
51 0 5 18 25 40 46 22 20 40 41 40 47 0 6 4 8 10 5 6 -3 7 1 4 9 -3 9 -2 16 4
16 8 0 22 31 28 65 8 47 19 77 32 87 12 10 14 10 8 1 -4 -7 -2 -13 3 -13 6 0
10 -3 10 -7 -6 -39 40 -84 126 -122 39 -18 92 -43 118 -57 27 -14 62 -28 78
-31 31 -5 99 21 150 58 14 10 29 16 33 12 3 -3 6 -1 6 5 0 7 7 12 15 12 8 0
15 5 15 10 0 6 7 10 15 10 8 0 15 5 15 12 0 6 3 8 6 5 4 -4 19 2 34 13 16 11
31 20 36 20 4 0 22 11 41 26 18 14 38 22 45 18 7 -4 8 -3 4 4 -4 7 -1 12 6 12
7 0 19 9 26 21 7 12 16 19 19 16 2 -3 13 2 24 11 11 9 22 16 25 14 2 -1 19 11
37 28 17 16 37 30 43 30 6 0 20 11 30 25 10 14 24 25 30 25 6 0 21 11 34 25
13 14 27 25 31 25 4 0 27 20 51 45 25 25 48 42 52 37 4 -4 6 -2 4 4 -1 5 16
30 40 54 23 24 42 46 42 50 0 4 16 24 35 44 40 42 90 143 101 201 3 22 12 49
17 60 6 11 12 25 12 30 1 6 7 9 14 7 7 -1 10 1 7 6 -5 8 28 42 41 42 16 0 100
48 122 70 32 31 73 105 64 114 -3 3 -2 6 4 6 5 0 10 6 10 13 1 6 4 32 7 57 11
76 10 94 -3 120 -16 29 -46 60 -59 60 -5 0 -15 13 -22 29 -13 32 -58 56 -90
48 -12 -3 -20 0 -20 8 0 31 -35 56 -84 59 -33 3 -54 10 -63 22 -7 10 -13 14
-13 10 0 -5 -6 -4 -12 1 -27 20 -94 0 -105 -31 -13 -40 -15 -51 -16 -116 -1
-135 14 -171 74 -172 47 0 69 -7 69 -23 0 -14 27 -28 40 -20 9 5 23 -25 15
-33 -2 -3 -22 7 -43 22 -25 17 -59 29 -98 34 -32 4 -59 12 -59 17 -1 6 -5 21
-10 35 -4 14 -9 67 -9 119 -1 74 -5 95 -16 97 -8 2 -28 6 -45 10 -16 4 -45 7
-62 8 -18 1 -33 3 -33 7 0 3 -10 5 -22 6 -22 1 -75 6 -183 18 -27 3 -79 7
-115 9 -70 4 -181 14 -245 22 -22 2 -67 7 -100 9 -93 7 -194 15 -265 22 -36 3
-74 6 -85 5 -10 -1 -25 4 -32 10 -8 6 -13 6 -13 1 0 -6 -17 -8 -37 -6 -121 12
-323 24 -323 19 0 -2 19 -23 43 -46 23 -24 41 -47 40 -52 -2 -4 6 -8 17 -8 11
0 20 -7 20 -15 0 -20 24 -24 162 -29 64 -2 121 -7 127 -10 5 -4 12 -2 16 4 4
6 11 8 17 4 5 -3 35 -8 66 -10 176 -11 400 -30 467 -39 31 -5 108 -13 180 -20
98 -9 224 -27 285 -40 8 -2 20 -4 26 -4 6 -1 11 -16 12 -33 2 -54 7 -92 15
-106 5 -6 5 -12 2 -12 -3 0 0 -9 8 -21 10 -14 12 -30 7 -54 -4 -19 -5 -36 -2
-39 3 -4 0 -6 -6 -6 -7 0 -12 -9 -12 -20 0 -11 -7 -23 -15 -26 -8 -4 -13 -10
-10 -14 6 -9 -131 -151 -143 -148 -4 1 -20 -4 -37 -11 -82 -35 -185 -70 -185
-63 0 4 -4 3 -8 -3 -9 -12 -31 -26 -100 -60 -29 -15 -51 -29 -49 -32 3 -2 -9
-19 -27 -36 -38 -39 -58 -73 -62 -107 -8 -64 -12 -82 -20 -90 -11 -11 -11 106
0 139 5 13 21 44 36 68 l28 44 -29 57 c-16 31 -35 64 -42 72 -14 18 -81 69
-114 87 -20 12 -23 11 -27 -10 -17 -91 -30 -143 -37 -151 -5 -5 -6 6 -3 25 22
152 22 262 0 358 -6 24 -95 163 -109 169 -4 2 -21 15 -37 29 -17 14 -30 22
-30 18 0 -3 -7 1 -16 9 -8 9 -20 14 -25 11 -5 -4 -9 -2 -9 3 0 5 -19 13 -42
17 -24 4 -50 10 -58 12 -75 19 -163 19 -245 -1 -76 -19 -208 -30 -185 -16 7 4
19 6 27 3 7 -3 13 0 13 6 0 6 7 8 15 5 8 -4 15 -1 15 6 0 6 4 9 8 6 5 -3 20 1
35 9 14 7 39 16 56 20 17 4 33 10 35 14 6 9 -49 71 -63 71 -6 0 -11 5 -11 10
0 6 -7 10 -15 10 -8 0 -15 5 -15 10 0 6 -7 10 -15 10 -8 0 -15 5 -15 11 0 5
-4 8 -9 4 -5 -3 -16 1 -24 9 -8 8 -17 12 -21 9 -3 -4 -6 -1 -6 6 0 7 -4 9 -10
6 -5 -3 -10 -1 -10 4 0 6 -9 11 -20 11 -11 0 -36 6 -55 14 l-34 15 -6 -32 c-3
-18 -7 -65 -10 -106 -10 -141 -16 -84 -15 143 1 224 2 227 23 236 12 5 18 9
12 10 -5 0 -3 5 5 10 8 5 15 13 16 17 0 7 10 54 21 108 5 27 5 126 -1 132 -2
3 -12 6 -23 7 -16 3 -18 14 -19 117 -1 104 -4 134 -20 223 -2 15 -14 47 -26
70 -23 46 -112 136 -134 136 -8 0 -14 5 -14 11 0 5 -4 7 -10 4 -5 -3 -10 -1
-10 6 0 7 -3 9 -7 6 -3 -4 -11 -3 -18 3 -6 5 -37 12 -69 14 -31 3 -60 8 -65
10 -5 3 -11 3 -14 0z m2 -1996 c7 -214 5 -352 -5 -355 -14 -5 -15 9 -16 242 0
242 0 254 10 238 4 -7 9 -63 11 -125z m-1007 -298 c8 0 58 -48 58 -55 0 -2 10
-15 23 -28 37 -39 57 -67 70 -95 25 -55 106 -118 192 -148 31 -11 108 -26 130
-25 48 1 165 11 185 16 14 3 30 7 35 8 6 2 15 5 20 8 25 15 45 17 51 7 4 -7 3
-8 -4 -4 -7 4 -12 2 -12 -5 0 -7 -3 -9 -7 -6 -3 4 -16 1 -27 -7 -23 -15 -84
-31 -103 -27 -7 1 -13 -3 -13 -10 0 -7 -10 -9 -25 -7 -14 3 -27 2 -30 -2 -4
-6 -132 -4 -180 2 -30 5 -125 49 -125 59 0 5 -6 9 -13 9 -19 0 -78 59 -97 96
-8 16 -23 36 -32 45 -10 9 -18 19 -18 23 0 9 -71 117 -93 141 -10 11 -23 29
-28 40 -6 13 -1 10 13 -7 13 -16 27 -28 30 -28z m2019 17 c-6 -8 -8 -17 -4
-20 3 -4 1 -7 -4 -7 -10 0 -133 -172 -133 -185 0 -8 -33 -46 -79 -92 -38 -39
-107 -80 -151 -90 -67 -17 -167 -21 -225 -9 -16 3 -38 7 -47 9 -10 2 -21 6
-24 10 -4 4 -18 7 -30 7 -13 0 -26 5 -29 10 -3 6 -15 10 -25 10 -10 0 -21 4
-24 8 -2 4 9 8 25 7 16 0 29 -3 29 -7 0 -4 8 -7 18 -7 21 0 44 -5 57 -12 6 -4
55 -6 111 -5 92 2 130 9 191 39 13 6 26 7 29 4 4 -4 14 1 23 11 9 10 25 22 35
25 10 4 16 10 14 13 -3 3 10 21 28 41 19 20 34 39 34 43 0 6 12 22 50 67 5 7
10 15 10 18 0 3 16 21 35 41 19 19 35 32 35 29 0 -4 12 7 26 24 14 17 28 31
31 31 3 0 0 -6 -6 -13z m-1014 -129 c-3 -8 -6 -5 -6 6 -1 11 2 17 5 13 3 -3 4
-12 1 -19z m223 -204 c0 -2 -7 -4 -15 -4 -8 0 -15 4 -15 10 0 5 7 7 15 4 8 -4
15 -8 15 -10z m130 -1199 c0 -8 -12 -18 -27 -21 -16 -4 -30 -11 -33 -15 -3 -5
-15 -10 -25 -12 -11 -1 -26 -6 -32 -10 -8 -5 -13 -4 -13 2 0 10 14 15 33 12 4
0 7 4 7 10 0 5 4 8 9 5 5 -4 11 -3 13 1 2 6 50 36 66 42 1 1 2 -6 2 -14z
m-148 -67 c-7 -7 -12 -8 -12 -2 0 14 12 26 19 19 2 -3 -1 -11 -7 -17z m583
-607 c-3 -6 -11 -11 -17 -11 -6 0 -6 6 2 15 14 17 26 13 15 -4z m-1354 -188
c13 -16 12 -17 -3 -4 -10 7 -18 15 -18 17 0 8 8 3 21 -13z m1759 -1373 c0 -5
-2 -10 -4 -10 -3 0 -8 5 -11 10 -3 6 -1 10 4 10 6 0 11 -4 11 -10z"/>
<path d="M8610 8437 c-15 -12 -80 -137 -84 -160 -1 -7 -5 -18 -9 -24 -5 -7 -6
-13 -2 -13 3 0 -2 -14 -10 -31 -9 -17 -14 -33 -11 -36 3 -3 1 -14 -4 -24 -9
-16 -68 -265 -85 -360 -9 -46 -13 -64 -15 -64 -1 0 -3 -9 -5 -20 -2 -11 -7
-36 -11 -55 -9 -45 -11 -56 -20 -110 -4 -25 -8 -49 -10 -55 -2 -10 -14 -74
-19 -105 -1 -8 -6 -14 -11 -12 -5 1 -25 5 -44 8 -37 7 -56 11 -92 19 -13 3
-36 7 -53 9 -16 3 -52 9 -80 15 -27 6 -66 13 -85 15 -19 3 -46 8 -60 12 -14 3
-36 5 -49 5 -12 -1 -28 2 -34 6 -6 4 -24 8 -41 10 -16 2 -39 5 -52 7 -21 4
-22 2 -14 -20 5 -13 6 -24 2 -24 -4 0 -1 -4 6 -8 7 -5 14 -22 15 -39 1 -17 8
-36 15 -42 6 -7 12 -10 12 -7 0 2 17 0 38 -5 20 -5 53 -11 72 -14 19 -2 57 -9
85 -14 27 -5 53 -7 57 -5 5 3 8 2 8 -3 0 -4 10 -9 23 -9 12 -1 40 -5 62 -8 22
-4 51 -9 65 -11 14 -3 34 -6 45 -9 11 -2 35 -5 54 -5 l34 -1 -8 -102 c-4 -57
-9 -123 -11 -148 -19 -217 -24 -578 -10 -710 9 -83 13 -114 16 -117 2 -2 3 -6
5 -10 13 -51 20 -64 42 -85 13 -12 26 -22 29 -20 2 1 5 2 7 1 1 0 9 -2 17 -4
8 -2 44 -13 79 -24 35 -12 74 -21 86 -21 12 0 25 -3 29 -7 3 -4 17 -9 29 -11
29 -5 51 -10 55 -12 1 -2 7 -4 12 -5 6 -1 11 -3 13 -5 1 -1 11 -3 22 -5 17 -3
59 -12 90 -19 6 -2 33 -6 60 -11 28 -4 54 -10 60 -13 5 -3 16 -7 25 -7 8 -1
38 -5 65 -10 81 -13 103 -16 270 -30 39 -3 76 -8 83 -10 8 -3 19 1 25 8 23 24
75 92 77 102 6 22 36 80 45 87 6 4 7 8 3 8 -4 0 -3 12 3 28 6 15 12 34 14 42
2 8 15 53 30 100 14 47 27 94 30 105 2 11 6 30 9 43 27 106 65 300 70 352 3
30 10 77 16 104 5 27 8 51 5 54 -2 3 0 13 5 23 8 14 18 17 52 13 23 -3 44 -5
47 -6 3 0 20 0 38 1 28 1 33 5 42 39 17 65 20 113 7 116 -6 2 -36 9 -66 16
-86 19 -89 20 -85 38 1 9 6 51 10 92 4 41 9 95 12 120 7 65 6 495 -1 560 -5
56 -13 105 -22 150 -3 14 -6 35 -6 48 -1 12 -6 22 -10 22 -4 0 -7 3 -6 8 1 4
-3 21 -9 38 -9 27 -19 33 -74 48 -35 10 -69 20 -76 23 -9 4 -10 -3 -3 -25 4
-17 6 -33 2 -36 -3 -3 -1 -6 4 -6 9 0 20 -45 40 -160 19 -109 18 -519 -1 -550
-3 -6 -2 -10 4 -10 7 0 7 -8 2 -22 -5 -13 -11 -52 -15 -88 -9 -94 -23 -205
-26 -205 -1 0 -3 -16 -5 -35 -2 -19 -4 -35 -5 -35 -1 0 -4 -16 -6 -35 -2 -19
-6 -44 -8 -55 -2 -11 -5 -26 -5 -32 -1 -7 -6 -13 -12 -13 -5 0 -7 5 -4 10 9
15 13 44 19 138 3 45 7 86 10 90 3 5 8 51 11 103 3 51 8 117 11 144 4 55 6
442 1 490 -1 17 -6 35 -10 42 -4 6 -3 14 2 18 7 4 7 15 0 32 -5 15 -8 32 -5
40 3 7 2 13 -2 13 -4 0 -8 8 -8 18 -1 9 -5 40 -9 67 -4 28 -8 56 -8 63 0 6 -4
12 -9 12 -4 0 -8 9 -8 19 0 20 -31 34 -95 46 -16 3 -42 7 -57 10 -29 6 -32 -5
-14 -47 4 -9 9 -25 11 -35 2 -10 4 -18 6 -18 1 0 3 -9 5 -20 2 -11 6 -33 9
-50 12 -64 25 -221 26 -310 0 -43 -12 -320 -16 -360 -14 -139 -20 -182 -34
-265 -17 -102 -21 -122 -31 -175 -17 -82 -18 -88 -28 -132 -5 -23 -7 -44 -4
-48 3 -3 0 -5 -7 -5 -7 0 -10 8 -7 18 6 23 15 69 20 112 3 19 7 46 10 60 6 29
17 110 21 160 2 19 4 35 5 35 4 0 19 162 26 290 12 205 1 531 -21 605 -2 8 -7
31 -10 50 -18 111 -43 160 -85 167 -8 1 -31 5 -50 9 -80 16 -83 15 -76 -14 4
-15 9 -36 11 -47 2 -11 7 -31 10 -45 3 -14 8 -38 10 -55 3 -16 7 -41 11 -55 6
-28 11 -75 19 -195 10 -142 10 -185 2 -185 -4 0 -3 -8 2 -19 6 -10 7 -21 4
-25 -4 -3 -8 -39 -9 -79 -2 -69 -10 -178 -18 -242 -2 -16 -7 -55 -10 -85 -4
-30 -9 -68 -11 -85 -3 -16 -7 -52 -10 -80 -2 -27 -6 -59 -8 -70 -17 -82 -31
-161 -29 -167 1 -5 -2 -8 -8 -8 -5 0 -7 15 -5 33 3 17 8 48 11 67 10 64 12 84
18 145 4 33 9 78 13 100 10 68 25 384 26 530 0 136 -16 396 -26 412 -3 5 -8
28 -12 52 -3 24 -15 68 -26 96 -20 55 -23 57 -119 70 -8 2 -19 4 -25 5 -30 7
-33 -1 -19 -52 8 -29 16 -62 18 -73 2 -11 6 -36 10 -55 19 -98 27 -230 26
-410 -1 -211 -4 -290 -10 -290 -3 0 -6 -12 -6 -27 -1 -34 -11 -125 -19 -173
-3 -19 -7 -53 -9 -75 -3 -22 -7 -47 -10 -55 -2 -8 -7 -33 -10 -55 -6 -42 -11
-70 -23 -120 -4 -16 -7 -34 -8 -40 -1 -5 -3 -12 -4 -15 -5 -9 -12 -64 -11 -88
0 -15 -5 -22 -13 -19 -6 2 -11 11 -9 18 2 7 5 27 8 44 2 16 6 41 9 55 3 14 8
50 10 80 3 30 7 66 10 80 2 14 7 48 10 75 3 28 7 66 10 85 2 19 7 76 11 125 4
50 11 100 15 112 5 12 4 25 -1 28 -5 3 -5 18 -1 33 7 22 8 517 2 517 -1 0 -4
25 -7 55 -2 30 -11 89 -20 130 -9 41 -17 86 -18 100 -3 25 -12 29 -105 45 -18
3 -37 7 -41 10 -5 3 -15 2 -24 -1 -14 -5 -14 -9 0 -35 8 -16 12 -34 9 -39 -3
-6 -2 -10 3 -10 6 0 10 -10 10 -22 1 -33 7 -62 15 -75 4 -6 7 -22 6 -34 0 -13
2 -42 6 -64 15 -82 8 -529 -10 -640 -2 -16 -7 -57 -10 -90 -3 -33 -8 -83 -11
-110 -4 -48 -27 -188 -37 -230 -2 -11 -8 -41 -11 -67 -4 -27 -11 -48 -16 -48
-6 0 -6 9 -1 23 8 21 21 99 27 162 1 17 3 30 4 30 1 0 3 11 5 25 1 14 6 54 10
90 4 36 8 81 10 100 2 19 6 71 10 115 15 167 9 655 -10 745 -13 64 -30 125
-36 130 -4 3 -9 12 -11 20 -3 14 -27 39 -38 39 -3 0 -12 -5 -20 -12z m-76
-1029 c0 -76 -6 -141 -19 -208 -3 -14 -7 -34 -9 -45 -12 -61 -29 -115 -37
-115 -5 0 -8 -3 -7 -7 5 -18 -15 -53 -29 -53 -25 0 -42 31 -42 75 l0 40 14
-32 c18 -43 45 -34 60 20 2 4 3 8 5 10 2 3 7 23 14 57 3 14 8 39 11 55 4 17 8
77 10 135 3 109 -6 150 -29 131 -23 -19 -26 1 -4 31 l21 30 20 -21 c17 -17 20
-33 21 -103z m-93 29 c-10 -9 -11 -8 -5 6 3 10 9 15 12 12 3 -3 0 -11 -7 -18z
m221 -512 c-6 -34 -13 -32 -10 4 1 16 5 28 9 26 3 -3 4 -16 1 -30z m863 -34
c-3 -10 -8 -34 -10 -52 -3 -19 -9 -47 -15 -64 -10 -30 -10 -30 -4 5 9 55 11
73 13 103 0 15 6 27 12 27 6 0 8 -8 4 -19z m-441 -36 c3 -8 1 -15 -4 -15 -6 0
-10 -11 -10 -24 0 -14 -5 -28 -12 -32 -6 -4 -8 -3 -5 3 3 5 7 26 9 46 2 38 12
48 22 22z m-238 -41 c-3 -9 -6 -22 -6 -30 0 -8 -4 -14 -9 -14 -5 0 -8 8 -6 18
2 9 4 23 4 30 1 6 6 12 12 12 6 0 8 -7 5 -16z m424 -31 c-11 -17 -11 -17 -6 0
3 10 6 24 7 30 0 9 2 9 5 0 3 -7 0 -20 -6 -30z m-446 -60 c-3 -21 -10 -42 -14
-47 -5 -5 -5 8 0 28 4 20 6 36 3 36 -2 0 -1 5 2 10 12 20 16 9 9 -27z m236 17
c0 -5 -2 -10 -4 -10 -3 0 -8 5 -11 10 -3 6 -1 10 4 10 6 0 11 -4 11 -10z m433
-25 c-7 -21 -12 -19 -10 4 0 11 5 18 9 15 4 -3 5 -11 1 -19z m-690 -70 c-3 -9
-8 -14 -10 -11 -3 3 -2 9 2 15 9 16 15 13 8 -4z"/>
<path d="M1331 8404 c-11 -15 -18 -30 -15 -35 3 -5 0 -9 -6 -9 -6 0 -8 -4 -5
-10 3 -5 1 -10 -6 -10 -7 0 -10 -3 -6 -6 3 -3 2 -16 -3 -28 -30 -81 -47 -371
-35 -631 4 -95 8 -143 29 -370 2 -22 5 -40 6 -40 1 0 3 -10 4 -22 2 -14 -3
-23 -11 -23 -7 0 -12 3 -11 8 2 7 -8 102 -17 152 -21 135 -29 265 -28 505 1
256 5 305 27 380 2 6 7 29 11 53 4 23 11 42 16 42 5 0 6 7 3 15 -4 8 -2 15 3
15 5 0 10 7 10 16 0 12 -9 14 -46 9 -67 -8 -141 -27 -136 -36 3 -3 -2 -29 -10
-55 -8 -27 -17 -76 -20 -109 -3 -33 -8 -78 -11 -100 -8 -53 -12 -535 -5 -535
3 0 7 -28 7 -63 2 -87 15 -280 19 -287 4 -6 18 -133 19 -172 1 -16 5 -28 9
-28 4 0 7 -6 5 -12 -1 -7 2 -35 6 -63 5 -27 10 -60 11 -72 2 -12 6 -36 11 -55
4 -18 8 -42 10 -53 1 -11 5 -33 9 -50 l6 -30 -15 32 c-8 17 -16 44 -17 60 -2
15 -7 33 -11 39 -4 6 -8 26 -9 45 -2 19 -6 39 -10 44 -4 6 -10 30 -14 55 -3
25 -8 52 -10 60 -3 13 -9 49 -20 137 -3 21 -10 66 -21 138 -3 17 -7 53 -9 80
-2 28 -6 61 -9 74 -16 72 -21 367 -10 526 4 55 8 117 8 137 1 21 3 38 6 38 3
0 6 9 7 21 1 11 7 46 14 77 6 31 12 62 13 67 1 6 5 16 9 23 10 15 0 32 -16 27
-7 -2 -25 -6 -42 -9 -72 -12 -90 -18 -99 -34 -6 -9 -9 -17 -7 -17 1 0 -3 -13
-9 -30 -13 -34 -15 -42 -36 -144 -33 -171 -38 -575 -9 -836 3 -22 7 -67 11
-100 9 -99 21 -191 27 -225 3 -14 8 -47 12 -73 4 -27 8 -57 10 -67 2 -9 6 -34
9 -55 4 -20 9 -41 12 -46 3 -5 0 -9 -5 -9 -6 0 -12 9 -12 20 -1 11 -2 23 -4
28 -2 8 -16 78 -21 107 -2 11 -7 36 -10 55 -4 19 -9 44 -11 55 -3 11 -6 31 -8
45 -2 14 -6 39 -8 55 -11 66 -20 121 -22 145 -2 14 -6 48 -10 75 -4 28 -8 79
-9 115 -1 36 -4 70 -7 75 -7 12 -3 460 5 534 3 29 8 70 12 90 3 20 7 43 9 51
1 8 8 35 15 60 6 25 14 55 16 68 5 26 8 26 -113 2 -64 -13 -72 -22 -79 -85 -2
-11 -5 -30 -8 -42 -13 -49 -17 -69 -21 -98 -2 -16 -7 -52 -10 -80 -20 -146
-20 -440 0 -645 14 -145 20 -200 31 -280 11 -79 11 -90 4 -90 -7 0 -26 86 -35
160 -2 19 -5 35 -6 35 -1 0 -3 9 -4 20 -2 11 -6 43 -10 70 -3 28 -8 68 -11 90
-2 22 -6 58 -9 80 -14 111 -20 412 -10 510 6 60 14 117 20 145 3 14 8 41 11
60 3 19 10 37 15 38 5 2 7 7 4 12 -3 5 -1 20 5 35 6 15 8 30 5 35 -3 4 -31 1
-63 -7 -31 -8 -61 -16 -67 -17 -22 -4 -55 -28 -50 -36 3 -4 0 -21 -6 -37 -6
-15 -13 -38 -15 -50 -2 -13 -7 -35 -10 -50 -32 -156 -37 -576 -9 -838 2 -22 7
-69 10 -105 3 -36 8 -76 11 -90 3 -14 8 -47 10 -75 2 -27 6 -66 9 -85 12 -71
16 -104 11 -99 -3 2 -7 18 -10 34 -3 17 -8 41 -11 55 -5 25 -15 86 -21 130 -2
14 -8 57 -14 95 -5 39 -12 97 -15 130 -3 33 -7 76 -10 95 -23 172 -27 648 -5
700 1 3 2 9 1 13 -1 4 8 44 19 89 11 44 20 84 20 88 0 8 -119 -23 -144 -37 -8
-4 -14 -11 -14 -16 0 -4 -5 -36 -12 -70 -14 -64 -15 -71 -24 -122 -25 -139
-26 -540 -1 -742 17 -141 20 -132 -60 -149 -51 -10 -57 -11 -72 -13 -17 -1
-17 -70 -1 -123 l12 -40 81 4 c55 3 82 1 82 -6 2 -37 16 -132 20 -139 3 -5 7
-23 9 -40 4 -46 12 -84 46 -242 17 -77 32 -147 33 -155 2 -8 4 -15 5 -15 2 0
6 -17 14 -55 13 -56 16 -68 40 -137 14 -40 32 -86 41 -103 8 -16 12 -30 8 -30
-5 0 -3 -4 2 -8 6 -4 19 -24 30 -45 35 -67 61 -90 98 -88 57 4 111 9 162 16
28 4 58 7 67 7 10 -1 20 3 23 9 4 5 14 5 26 -1 10 -6 19 -7 19 -3 0 5 12 9 28
10 68 4 102 8 102 13 0 3 8 6 18 7 25 2 62 9 107 21 22 6 54 14 72 17 18 3 44
10 59 15 15 6 29 8 32 6 2 -3 13 -1 24 5 11 6 32 13 46 15 15 3 41 9 57 14 17
5 62 19 100 31 72 21 105 42 105 66 0 7 3 13 8 13 4 0 8 10 8 23 1 12 5 33 8
47 25 94 26 658 1 850 -12 90 -16 188 -8 193 5 3 27 8 48 11 43 6 95 14 135
22 14 3 39 7 55 10 17 2 46 7 65 11 19 3 46 8 60 10 53 7 75 11 75 13 0 1 9 3
20 4 78 10 93 16 99 46 3 17 5 31 4 33 -1 1 5 13 12 27 24 44 22 52 -13 44
-18 -4 -43 -8 -57 -10 -14 -1 -41 -6 -60 -9 -19 -3 -44 -8 -55 -9 -51 -7 -102
-18 -122 -26 -14 -6 -25 -6 -29 1 -4 6 -10 7 -17 0 -7 -5 -29 -12 -49 -15 -21
-3 -59 -11 -85 -17 -82 -18 -126 -22 -119 -11 3 6 2 13 -4 17 -6 4 -8 9 -6 13
2 4 -4 50 -14 102 -10 52 -16 98 -14 102 3 4 0 16 -5 27 -6 10 -11 34 -12 52
-2 19 -5 39 -8 44 -3 6 -7 19 -8 30 -2 11 -10 52 -19 90 -9 39 -17 77 -19 85
-2 8 -10 42 -19 75 -8 33 -22 92 -31 130 -20 80 -21 84 -65 185 -17 41 -32 80
-33 87 0 7 -4 10 -8 8 -3 -3 -12 2 -19 10 -17 21 -25 19 -49 -11z m184 -919
c14 -14 25 -32 25 -40 0 -8 5 -15 11 -15 5 0 7 -5 3 -12 -5 -8 -10 -5 -17 9
-12 27 -44 36 -50 14 -8 -31 2 -256 14 -306 25 -102 67 -143 87 -86 6 17 12
31 14 31 7 0 2 -55 -6 -68 -4 -7 -6 -16 -2 -19 3 -3 -2 -12 -10 -20 -18 -18
-44 -10 -51 17 -3 11 -10 20 -16 20 -6 0 -7 3 -4 6 3 4 1 16 -6 28 -6 11 -12
30 -12 41 -1 11 -5 36 -10 55 -5 19 -10 46 -11 60 -1 14 -3 25 -4 25 -4 0 -10
68 -13 150 -2 53 2 89 11 108 7 15 15 27 17 27 2 0 16 -11 30 -25z m-214 -282
c1 -21 10 -101 13 -123 3 -14 7 -43 11 -65 3 -21 2 -35 -2 -31 -4 4 -8 11 -9
14 0 4 -3 25 -7 47 -4 22 -9 54 -11 70 -3 17 -7 45 -10 63 -4 19 -2 32 4 32 5
0 10 -3 11 -7z m-607 -270 c8 -63 1 -65 -11 -3 -6 27 -7 50 -3 50 4 0 10 -21
14 -47z m646 -12 c0 -32 -6 -24 -14 19 -4 25 -3 31 4 20 5 -8 10 -26 10 -39z
m7 -53 c-3 -8 -6 -5 -6 6 -1 11 2 17 5 13 3 -3 4 -12 1 -19z m-633 -33 c3 -8
1 -15 -3 -15 -5 0 -11 7 -15 15 -3 8 -1 15 3 15 5 0 11 -7 15 -15z m3 -57 c-3
-7 -5 -2 -5 12 0 14 2 19 5 13 2 -7 2 -19 0 -25z m-217 -14 c0 -8 -5 -12 -10
-9 -6 4 -8 11 -5 16 9 14 15 11 15 -7z m230 -14 c0 -5 -2 -10 -4 -10 -3 0 -8
5 -11 10 -3 6 -1 10 4 10 6 0 11 -4 11 -10z m-220 -45 c0 -5 -5 -3 -10 5 -5 8
-10 20 -10 25 0 6 5 3 10 -5 5 -8 10 -19 10 -25z m217 3 c-3 -8 -6 -5 -6 6 -1
11 2 17 5 13 3 -3 4 -12 1 -19z m221 -13 c-3 -3 -9 2 -12 12 -6 14 -5 15 5 6
7 -7 10 -15 7 -18z m242 -15 c0 -5 -4 -10 -10 -10 -5 0 -10 5 -10 10 0 6 5 10
10 10 6 0 10 -4 10 -10z m-673 -42 c-3 -8 -6 -5 -6 6 -1 11 2 17 5 13 3 -3 4
-12 1 -19z"/>
<path d="M4530 8039 c0 -5 -4 -7 -10 -4 -5 3 -10 1 -10 -4 0 -6 -7 -11 -15
-11 -8 0 -15 -5 -15 -11 0 -5 -4 -8 -9 -4 -6 3 -15 -5 -22 -17 -7 -13 -16 -26
-21 -29 -5 -3 -10 -40 -12 -81 -2 -44 -10 -89 -20 -108 -20 -42 -20 -49 2 -45
9 2 20 4 23 4 25 3 96 117 103 165 2 18 40 56 55 56 16 0 19 25 5 45 -8 10
-14 27 -14 37 0 11 -7 18 -20 18 -11 0 -20 -5 -20 -11z"/>
<path d="M4600 7905 c0 -8 -6 -15 -13 -15 -18 0 -40 -26 -67 -77 -12 -24 -27
-43 -33 -43 -6 0 -3 -8 6 -17 16 -16 19 -16 27 -3 8 13 10 13 10 0 0 -10 5 -7
16 8 8 12 20 20 25 17 5 -4 12 1 15 9 3 9 12 16 20 16 8 0 14 5 14 11 0 5 4 8
8 5 7 -4 8 27 3 80 -2 18 -31 26 -31 9z"/>
</g>
</svg>
